<svg version="1" xmlns="http://www.w3.org/2000/svg" width="4304" height="4304" viewBox="0 0 3228.000000 3228.000000"><path d="M0 1613.5V3227l809.3.2c445 .2 1171.1.2 1613.5 0l804.2-.2V0H0v1613.5zm603.6-1573c-1 2.7-27.7 40.1-38.6 54.2-5.8 7.5-12.7 16.5-15.4 20.1-5.6 7.6-16.7 26.6-23.3 40.2-3.3 6.7-6.9 12.1-12.5 18.5-4.3 4.9-9.3 11.9-11.3 15.6-1.9 3.6-6.1 10.6-9.3 15.5-3.2 4.9-7.4 11.8-9.3 15.4-3 5.5-13.9 21.6-25.8 38-1.6 2.2-3.2 5.7-3.6 7.7-.9 4.9-5.3 12.6-10.5 18.3-2.3 2.5-5.5 6.5-7.3 9-4.7 6.8-14 18.7-20.2 26-3.1 3.6-9.1 11.2-13.3 17-4.2 5.7-13.8 16.9-21.2 24.7-13.4 14.2-17.8 19.6-34 41.8-4.7 6.4-11.1 14.4-14.3 17.8-3.2 3.4-9.2 11.3-13.4 17.7-5.9 8.9-10.9 14.7-22 25.7-7.9 7.8-14.3 14.8-14.3 15.5 0 2.3-4 8-5.3 7.5-.7-.3-6.9-3.1-13.9-6.1-17.3-7.7-24.7-9.3-34.1-7.8-12.5 2-16.2 3.4-21.4 8.4-5.9 5.5-8.6 6.9-17.8 9.7-6.6 1.9-12.9 5.5-14.7 8.3-.4.7-.8 3-.8 5.1 0 5.7-1.4 7.8-4.9 7.1-2.7-.6-2.9-.3-5.9 7.3-1.8 4.3-4.3 11.4-5.6 15.8-3.8 12.9-11.6 34.6-14.2 39.7-1.3 2.6-3.5 8.5-4.9 13.3-1.3 4.7-2.9 9.4-3.5 10.4-1.5 3-7.4 6.1-11.2 6.1-2 0-6 1.3-9.4 3.1-7.3 3.9-15.8 6.9-19.6 6.9-7.6 0-9.7 5.3-7.1 17.8l1.7 8.3-5.8 11.2c-7.4 14.1-10 17.6-13.7 18.4-2.8.5-9.9 6.5-9.9 8.4 0 .5-.9 2.9-2 5.1-1.2 2.5-2 6.2-2 9.2 0 4.6-.5 5.6-7 14.1-3.8 5-8.1 10.2-9.5 11.5l-2.5 2.3V39h282.6c254 0 282.6.2 282 1.5zM3187 1613v1574H1705.1l-2.6-5.3c-1.5-2.8-3.9-6.6-5.4-8.2-1.5-1.7-4.9-6.3-7.4-10.3-2.6-3.9-6.7-10.3-9.2-14.1-2.9-4.4-4.5-8-4.5-10 0-2.3-.5-3.1-1.7-3.2-1 0-3.3-2.3-5.2-5.2-3-4.6-3.5-6.2-4.2-14.7-.5-5.2-1.6-12.3-2.5-15.7-1.9-7.4-1.5-8.9 2.3-9.6 1.5-.3 3.8-.8 4.9-1.2 1.7-.5 2.6 0 3.9 2.3 1 1.6 2.9 3.6 4.4 4.5 3.9 2.2 18.1 4.8 24.8 4.5l5.8-.3v-7.2c0-8.2.8-7.3-12.3-15.4-6.7-4.1-9.5-6.6-13.7-12.3-2.9-3.9-7.2-9.1-9.4-11.4-2.3-2.4-5.8-6.9-7.8-9.9-2.5-3.9-5.7-6.8-10.3-9.8-6.5-4.1-11-8.9-14.4-15-2.6-4.7-4-6.9-5-7.6-.4-.4-1.8-3.1-3-6-3.2-7.6-10.7-17.9-15.8-21.6-2.4-1.7-7.3-4.4-10.9-6l-6.6-3-2.7-8.4c-1.5-4.6-3.1-12-3.7-16.4-.5-4.4-2.3-14.4-3.9-22.3s-3.4-19.4-4-25.5c-1.2-12.8-2.7-25.4-4.1-34.3-.5-3.3-.9-8.4-.9-11.3 0-2.9-.7-6.6-1.7-8.4-.9-1.8-2-6.1-2.4-9.7-2.2-19-2.8-23-3.9-27.1-1.4-4.9-3.6-26.4-5-47.2-.5-7.5-1.2-14.2-1.5-14.6-.5-1-3.1-27.9-4.1-44.1-.4-6.3-1.2-10.5-2.4-12.5-1.2-2.1-1.9-6.2-2.4-13.5-.3-5.8-1-12.1-1.6-14-.5-1.9-1-7.5-1-12.5 0-11.3-1.8-23-5.6-37.8-1.6-6.1-1.6-6.8-.2-8 1.4-1 1.5-3 .7-15.2-1.6-26.2-2.8-39-3.7-42-4-12.9-7.3-24-8.7-29.5-.9-3.6-2-7.9-2.5-9.5-.5-1.7-2.1-7.3-3.6-12.5-1.4-5.2-3.5-11.6-4.7-14.2-1.6-3.9-1.9-5.9-1.4-11.6.8-7.8-1.3-15.8-5.8-22.2-1.4-2-2.5-4.7-2.5-6.1 0-1.3-1-4.4-2.1-6.9-4-8.8-8.7-21.6-10.3-28-.9-3.6-2.8-10.8-4.1-16-3.4-12.7-7.2-31.7-9-44.9-1.8-12.6-8.1-32.6-11.9-37.6-3.1-4-6.3-5.9-15-8.7-3.4-1.1-6.7-2.5-7.3-3-.8-.6-1.3-3.4-1.3-6.7 0-6.5-4.2-23.1-7-27.6-1.1-1.7-4.1-4.3-6.8-5.8l-4.8-2.6-2.8-12.3c-5.5-24.4-18.6-64-23.8-71.9-6.9-10.5-9.7-16.7-9.1-20.2.3-1.8-.2-7.2-1.1-12-.9-4.8-2.1-13.1-2.6-18.5-.5-5.5-2.8-17.2-5.4-27.2-2.5-9.6-8-33.9-12.1-54-4.2-20.1-8.7-40.9-10-46.2-1.4-5.3-2.5-10.4-2.5-11.3 0-.9-.6-2.3-1.4-3-.7-.8-1.7-3.4-2-6-.4-2.5-1.2-4.5-1.8-4.5-.6 0-.8-1.1-.5-2.7.3-1.4-.2-4.9-1-7.7-1.9-6.6-10.5-29.8-14.8-40.1-8.7-21-10.5-25.9-13.8-38-3.9-14.2-5.1-19.6-9.7-45-3.8-20.8-5.1-25.6-10-36.2-2.2-4.5-6.1-15.2-8.9-23.7-3.2-9.8-7.3-19.7-11.1-26.9-3.8-7.3-6-12.6-6-14.7 0-1.8-1.6-6.4-3.5-10.1-1.9-3.8-3.5-7.6-3.5-8.4 0-.8-.9-1.5-2-1.5-1.3 0-2.5-1.1-3.3-2.8-.6-1.5-1.7-3.2-2.4-3.7-1.4-1.2-2.7-10.5-1.4-10.5 1.5 0 2-3.8.5-4.4-.9-.3-1.3-2.4-1.2-6.6.1-5.3.4-6.3 2.2-7 1.4-.6 1.6-.9.5-.9-2.5-.1-5.5-4.2-7.4-10.1-1.8-5.5-5.8-13.8-11.5-23.8-1.6-2.9-3-6.4-3-7.7 0-1.3-1-5-2.2-8.2-1.3-3.5-2.1-7.6-1.9-10.3.2-3.8-.3-5.3-3.1-8.9-5-6.6-6.8-10.4-6.2-13 .3-1.3.2-4.3-.2-6.8-.5-3.6-1.3-4.9-3.8-6.4-1.7-1-3.2-1.4-3.4-.9-.5 1.3-4.2 1.3-4.2 0 0-.6-.9-1-2-1-1.5 0-2-.7-2-2.5 0-1.6.6-2.5 1.5-2.5s1.5-.9 1.5-2.3c0-3.4-2-9.7-3-9.7-.6 0-1-1.3-1-2.9 0-1.6-1.8-6.9-4-11.9-2.2-4.9-4-10.5-4-12.3 0-1.8-2-10.5-4.4-19.4-2.4-8.8-5.1-19.6-6.1-24-3.6-16.6-8.2-28.7-11.6-30.6-1.1-.5-1.7-2.2-1.7-4.8-.1-5.4-2.6-9.9-6.5-11.5-3.6-1.5-15.8-3.6-21.3-3.6-4.6 0-7.4-1.6-7.4-4.1 0-1.1 2.4-4.6 5.3-7.7 2.9-3.1 6.5-7.3 7.9-9.2 1.4-1.9 5.5-6.5 9.1-10.2 7.2-7.3 8.4-10.3 7.4-18.8-.7-6.1-3-10.5-10.6-20.5-3.4-4.4-8.4-12.5-11.3-18-2.8-5.5-8.6-15.6-12.9-22.5-6.8-11-9.5-14.2-23.1-27.5-8.4-8.3-16.9-16.4-18.8-18-5.5-4.7-8-8.5-8-12 0-2.3-1.4-4.9-5.5-10-3-3.8-5.5-7.2-5.5-7.6 0-.4-2.9-3.2-6.5-6.2-7.5-6.5-20.7-23.3-20.1-25.6 2.2-8.1 2.8-15.2 1.8-19.4-.7-2.5-1.2-6.6-1.2-9.1s-.4-4.7-.9-5c-.5-.3-.7-3.2-.4-6.4.6-6.9-1-10.9-6.4-16-3.5-3.3-3.5-3.4-2.9-9.5.4-3.4 1.2-8.7 1.8-11.8.9-4.6.9-6.1-.5-8.7-1.2-2.5-1.3-4-.5-6.9 2-7.4 5.7-14.1 9-16.3 7.6-5.3 8.5-9.3 3.7-15.9-2.9-4-3-4.6-2-8.9 1-4.9 2.2-11.3 2.6-14.7.2-1.1 1.2-3.6 2.3-5.5 1.1-1.9 3.4-6.9 5-11 10.5-26.6 15.2-47.3 15.2-66.1 0-23.1 3-58.3 6-69.9 1.8-6.8 2-11 2-43.5 0-32.9-.2-36.7-2.1-43.5-1.1-4.1-2.2-10.1-2.6-13.2-.7-6.6-2.5-9.9-11.5-20.5-7-8.4-15.8-15.2-22-17.2-2.1-.7-4-1.6-4.3-2.1-.3-.4-4.3-2.9-8.9-5.4-4.6-2.5-9.5-5.5-10.9-6.8-1.4-1.3-4.2-3.5-6.3-5.1-22.6-16-22.1-21.7 1.8-21.7 9.1 0 12.2-.4 15.7-2 2.4-1.1 6-2 8.2-2 5.6 0 9.7-3 15.9-11.6 10.3-14.4 24.8-31.9 37.3-45.1 11.2-11.8 13.6-15.1 22.8-30.4 5.7-9.5 11.4-18.6 12.9-20.3 1.4-1.7 4.5-6.1 6.8-9.7 2.3-3.6 5.4-7.7 6.8-9 7.4-6.7 7.7-13.2 1-17.8-8.4-5.8-16.6-9.2-25.7-10.7-4.9-.8-12.2-2.3-16.2-3.4-3.9-1.1-11.2-2.6-16.2-3.4-4.9-.8-14.4-2.4-21-3.6-36.2-6.4-36.5-6.5-39.8-5.1-7 2.9-7.7 2.7-7.7-1.6 0-2.1-.9-5.7-2-7.8l-2.1-4 4.7-4.1c4.1-3.6 4.7-4.6 5.1-9 .8-9.3.9-9.4 5.6-9.4 2.3 0 9.4-1.6 15.7-3.6 10.3-3.2 13.1-3.7 27.5-4.4 8.8-.4 17.3-1.2 18.8-1.9 1.6-.6 4.9-1.1 7.5-1.1 2.6 0 7.2-.7 10.2-1.5 3-.8 8.8-1.5 12.8-1.5 3.9 0 7.2-.4 7.2-.9s1.1-1.9 2.4-3.2c3.4-3.3 2.2-4.9-8.2-10.5-4.8-2.6-11.1-6.2-13.9-8.1-2.9-1.8-6.9-3.9-8.8-4.7-4.8-2.1-14.2-8.2-19.1-12.7-2.3-2-6-4.9-8.3-6.5-6.1-4-17-15.3-18.8-19.4-1-2.2-1.9-8.9-2.4-18.5-.4-8.3-1.5-19.3-2.4-24.5-.8-5.2-2.4-15.6-3.4-23-3.1-21.4-4.7-27.9-12.8-53.7-1.9-6.2-4.2-12.3-5.1-13.5-1-1.3-2.6-3.9-3.6-5.8s-3.5-5.5-5.5-7.9c-1.9-2.5-5.2-7-7.2-10.1-2-3.2-5.8-7.5-8.5-9.6-2.6-2.1-6.2-5.5-7.8-7.4-5.9-6.6-8.4-8.6-15-11.8-4.5-2.2-7-4.1-7.6-5.7-.6-1.5-1.7-2.5-2.9-2.5-1.1 0-2.7-1.2-3.6-2.8-2.1-3.4-9.4-8.5-16-11-14-5.4-26.1-9.5-36.5-12.1-6.3-1.6-21.6-6-34-9.6-15.7-4.6-25.7-7-33-7.8-14.7-1.7-73.2-1.1-92 .9-15.5 1.6-16.7 1.8-33.5 5.8-6 1.5-14.1 3.4-18 4.2-15.8 3.7-38 12.2-45 17.3-2.7 2-10.2 7.1-16.5 11.3-14.4 9.5-24.2 18.6-34.6 31.9-17.3 22.1-25.1 37.5-32.7 65-5.6 20-6.9 27.2-10.8 58.9-3.2 26.5-3.3 29.6-1.4 39.5 1.5 8 5.6 24.7 8.5 34.5.5 1.9 1 8.7 1 15 0 12.9-3.7 32.1-8.4 43.9-1.4 3.6-2.6 8-2.6 9.9 0 4.1 4.9 11.6 8.9 13.7 1.6.8 3.1 2.2 3.5 3 1.2 3.3.6 9.7-1.4 13.5-1.2 2.4-2 5.9-2 8.9 0 4 .4 5.2 2 6.1 1.3.7 2 2.1 2 3.9 0 4 5.3 9.8 11.6 12.6 2.8 1.2 6 3.5 7.1 5.1 3.2 4.8 6 12.5 6.6 18.5l.5 5.7-7.8.4c-6.9.3-8.2.6-11.7 3.4-2.1 1.7-7 5.1-10.8 7.6-4.3 2.7-9.1 6.9-12 10.6-2.8 3.3-5.9 6.4-7 6.8-1.1.4-3.3 1.7-4.8 3-3.6 3-6.8 3-10.4.1-5.1-4.2-12.6-6.7-20.1-6.7-6.8 0-7 .1-9.7 3.6-1.6 2-3.2 5.6-3.7 8-1.1 5.1.1 4.9-17.9 3.2l-12.7-1.1-4.8 3.2c-4.4 2.9-5.4 3.2-9.9 2.6-2.7-.4-8-1.5-11.8-2.6-4.2-1.3-8.9-1.9-12.5-1.7-5.4.3-5.7.5-6 3-.3 2.2-1.1 2.9-4 3.8-4.8 1.3-6.5 1.3-5.6-.1.4-.8-.8-1-4.2-.6-2.7.3-9.9 1-16 1.5-16.2 1.5-20.2 2.2-22.7 4.2-2.4 1.9-8.4 3.8-21.7 7-4.7 1.1-11.4 3.5-15 5.4-3.6 1.8-8.3 3.9-10.5 4.6-2.2.7-9.2 3.9-15.5 7.1-6.3 3.2-12.8 6.1-14.5 6.4-4.9 1.1-8.7 2.6-14.5 6.1-3 1.8-7.3 3.6-9.5 4-4 .6-4.1.5-9-5.3-2.8-3.3-7-7.5-9.5-9.4-7.4-5.6-22.8-21.2-23.9-24.2-.6-1.6-1.1-4.8-1.1-7.2 0-2.4-.7-7-1.6-10.2-2.7-9.8-3-11.6-2.9-17.8 0-6.8-1.7-5.5 16.9-14 10.7-4.9 24.8-13 30.8-17.7 4.7-3.6 22.9-25.4 29.3-34.9 6.7-9.9 8.5-15.5 9.5-28.1l.8-10.8 5.6-6c3.1-3.4 5.6-6.5 5.6-7 0-.4 2.1-2.4 4.8-4.2 5.3-3.9 6.8-6.7 10.5-20.3 2.2-8 2.4-9.3 1.2-12.2-2.1-5-5.8-6.3-18-6.3-5.8 0-10.5-.3-10.4-.8 0-.4 1.9-2.1 4.2-3.7 2.3-1.7 6.5-6.2 9.4-10 2.8-3.9 12.1-13.8 20.5-22 8.4-8.3 17.9-18.1 21.1-21.8 5.7-6.8 18.8-26.1 22.2-32.7 3.7-7.2 13.9-18.8 21.6-24.6 2.9-2.2 25.5-26.3 32.8-34.9 1.8-2.2 11.8-12.8 22.1-23.5s22-23.3 26-28c4-4.7 10.8-12.1 15.1-16.5 4.2-4.4 10-10.8 12.7-14.3 5.3-6.7 25.3-26 33.7-32.6 2.8-2.2 8.4-7.4 12.5-11.5 4.1-4.2 16.3-16.2 27.1-26.6 24.6-24 70.9-72 81.4-84.5 4.3-5.2 11.8-13.8 16.5-19 10-11 35.5-40.1 45-51.3l6.5-7.7H3187v1574zM165.1 988.7c2.4 2.4 5.1 6.6 6.9 11.1 3.5 8.6 12.7 23.2 14.6 23.2.7 0 2 1.2 2.8 2.7 3.8 7.4 12.8 14.3 18.5 14.3 2.3 0 4.1.4 4.1 1 0 .5.5 1 1 1 .6 0 1-.7 1-1.5s.8-1.5 1.8-1.5c1.9 0 7.9-2.9 12.7-5.9 1.7-1.1 3.7-2 4.5-2 .8-.1 2.2-.6 3-1.1 1.2-.8 1.1-1.2-.8-3-1.2-1.1-2.2-2.9-2.2-3.9s-.7-2.4-1.5-3.1c-1.8-1.5-2-5-.2-5 .7 0 2.8 1.5 4.6 3.4 3.8 3.9 6.7 5 7.5 3 .6-1.5 3.6-2 3.6-.5 0 .4 2 .2 4.5-.7 4.6-1.5 5-2.2 4.6-7.4-.1-1.9.4-2.8 1.8-3.3 1.2-.3 2.1-1.1 2.1-1.6s.9-.9 2-.9 2 .4 2 1c0 .5.9 1 2 1s2 .5 2 1.1c0 .8 1.6 1 5 .5 3.2-.4 5-.3 5 .4 0 .6 2.6 1 6.3 1 3.4 0 9.1.7 12.7 1.5 3.6.9 10.1 2 14.5 2.5 4.4.4 9.5 1.4 11.2 2 2.7 1 3.5.9 4.8-.3 2.4-2.5 0-6.7-3.7-6.7-3.8 0-4.9-2.7-2-5.1 1.2-.9 2.2-2.9 2.2-4.3 0-2.1.5-2.6 2.4-2.6 1.5 0 2.7.7 3.1 1.9.4 1.3 1.2 1.7 2.5 1.4 1.4-.4 2 0 2 1.1 0 .9.7 1.6 1.6 1.6 1.2 0 1.5.7 1.2 2.5-.4 1.7-.1 2.5.9 2.5.8 0 2 .6 2.8 1.2 4.9 4.8 9.1 6.9 11.9 6.2 1.9-.4 2.6-.1 3.1 1.5.3 1.2 1.3 2.1 2.1 2.1s2.2.9 3.1 2c1 1.1 2.7 2 3.9 2 1.5 0 2.4 1 3.4 4 .8 2.4 1.6 3.6 2.1 2.9.5-.9 2-.8 6 .4 3 .9 7.1 1.9 9.1 2.2 2.1.3 5 1.6 6.5 2.8 1.5 1.3 4 2.8 5.6 3.5 1.5.6 2.7 1.6 2.7 2.2 0 .5.7 1 1.5 1 1.7 0 2.1 3.6.4 4.2-.8.3-.8 1.1.2 2.8 2.3 3.9 3.2 4.7 5.1 4.2 1.3-.3 1.8.1 1.8 1.4 0 1.1 1.4 3 3 4.3 1.7 1.3 3 2.7 3 3.3 0 2.1 3.8 4.7 7.5 5 3.4.2 4 .6 3.9 2.4 0 1.4.4 2 1.2 1.7 2-.8 6.2 4.8 7 9.2.3 2.1 1 4.6 1.5 5.5 1.9 3.4 5.9 14.5 5.9 16.4 0 1.2 1.1 5.9 2.4 10.6 2.8 10 4.1 15.5 5.5 23 .6 3 2 8.6 3.2 12.5 1.2 3.8 2.6 9.8 3.2 13.2.6 3.5 1.5 6.3 1.9 6.3.4 0 .8.9.8 1.9 0 1.1.4 2.2.9 2.6 1.1.6 2.1 5.3 5.1 23.5 4.4 26.9 5.2 31.6 6 33 .4.9 1.1 3.6 1.5 6 .4 2.5 1.3 6.4 2.1 8.8.8 2.3 1.4 6.2 1.4 8.5s.9 7.1 2 10.7c1 3.6 3.1 10.3 4.5 15 1.5 4.7 3.3 12.3 4.1 16.9.9 4.7 2 9.4 2.7 10.5 1.1 2.1 5.1 15.9 6.7 23.1.5 2.2 1.3 5.6 1.9 7.5 2.7 9.1 5.4 20 6.2 25 .5 3 1.4 8 1.9 11 .6 3 1.6 10.4 2.3 16.4.8 6.4 1.9 11.2 2.5 11.4.7.2 1.2 2.8 1.2 6.5.1 3.4.5 8.2 1.1 10.7.6 2.5 1.5 7 2 10 .6 3 1.5 7.7 2.1 10.5.6 2.7 1.3 6.6 1.5 8.5.1 1.9.7 5.7 1.4 8.5.6 2.7 1.4 7.2 1.9 10 .4 2.7 1.5 7.6 2.4 10.8.9 3.2 1.6 7.4 1.6 9.4s.4 5.2.9 7.2 1.5 6.3 2.2 9.6c1.3 6.6 4.6 12.2 12.2 20.2 3.4 3.6 4.7 5.8 4.3 6.9-.4 1.1-1.3 1.4-2.7 1.1-1.6-.4-1.8-.3-.9.8.7.8 2 1.7 3.1 2 2 .7 2.7 4.9.9 6-.6.3-1 2.1-1 3.8 0 1.8-.7 4.2-1.5 5.5-1.1 1.5-1.4 3.2-.9 5.7.4 2.2.2 3.5-.5 3.5-.6 0-.8.6-.5 1.4.3.8 0 2.5-.7 3.8-.7 1.3-1.3 5.7-1.5 9.8-.1 4.7-1 9.6-2.3 13-1.2 3-2.1 7.8-2.1 10.7 0 2.8-.5 6.4-1.2 8-.6 1.5-1 5.1-.9 8 .3 5.3-1.9 10.3-4.4 10.3-1.8 0-2.4 4.2-1.8 13.1.7 9.9-.5 12.1-8 14.3l-5.4 1.6.4 5.7c.2 3.2.8 7.9 1.3 10.5 1.2 6 .5 7.8-3 7.8-1.6 0-3 .3-3.2.7-.4 1-5.7 4.2-8 5-2 .6-4.8 12.2-4.8 20.2 0 3.7-.7 7-2 9.6-1.2 2.3-1.6 4.1-1 4.3 2.3.8.9 3.2-1.8 3.2-2.1 0-2.9.5-2.9 1.7.1 6.3-.3 7.2-3 7.5-2.3.2-2.7.7-2.5 2.7.3 1.8 0 2.2-1.2 1.8-.9-.4-2.1.2-3 1.5-.9 1.2-1.9 1.7-2.7 1.3-.7-.5-1-.4-.5.3.4.6-.1 2-1.1 3.1-1.2 1.4-1.6 3.4-1.4 6.6.1 2.5-.1 4.6-.6 4.7-.4 0-1.9.2-3.3.3-3.3.3-6.2 1.7-13.5 6.4-3.3 2.2-5.9 4.4-5.7 5 .1.6-.5 1.1-1.4 1.1-.8 0-1.3.4-1 .9.3.4-.3 1.6-1.4 2.6-1.1 1-2 2.7-2 3.8 0 1.2-.9 4-2.1 6.4-2 4.1-2 8.1 0 6.9.5-.4 1.6-.3 2.5 0 2 .8 2.1 4.4.1 4.4-.9 0-1.5.9-1.5 2.5 0 1.4-.4 2.5-1 2.5-.5 0-1 .9-1 2.1 0 1.4-1.2 2.5-4 3.7-3 1.3-3.8 2.1-3.4 3.4.3 1 .1 1.8-.5 1.8-2.4 0-5.1 4.1-5.1 7.5 0 2.7-.4 3.5-1.9 3.5-1.4 0-1.7.6-1.4 2.3.3 1.3-.2 3-.9 3.8-.8.8-1.3 2-1 2.8.3.9 0 1.2-1 .8-1-.3-2 .4-2.9 1.9-.8 1.6-2 2.4-3.2 2.2-1.7-.3-2.1.4-2.4 4.2-.2 2.5-.9 4.6-1.4 4.8-.5.2-.9 1-.9 1.8s-.4 1.4-.9 1.4-.7.9-.4 2c.3 1.2 0 2-.7 2-1.4 0-4 2.5-4 3.9 0 .6-.4 1.1-.9 1.1-.6 0-.6 1.2 0 3.2 1.2 4.3 1.2 4.1-1.2 3.5-2.2-.6-4.2.8-4.7 3.3-.2.8-.8 1.7-1.3 1.8-.5.2-.7.8-.3 1.3.3.5-.4.9-1.4.9-1.5 0-3.2 2.4-6.8 9.2-2.7 5.1-5.3 10.6-5.9 12.3-.5 1.6-1.4 3.7-2 4.5-3.1 4.8-11.8 21.9-17.4 34.3-2.3 5.2-2.8 7.3-2.1 8.7 1.3 2.4 1.3 4 0 4-.5 0-1-.7-1-1.5s-.4-1.5-1-1.5c-.5 0-.6.7-.3 1.7.4 1.1.3 1.4-.5.9-.8-.5-1.2.2-1.2 1.9s-.4 2.4-1.2 1.9c-.6-.4-.8-.3-.5.4.4.5-1.7 7-4.6 14.4-3 7.3-6.6 17.3-8.1 22.3-1.5 4.9-3.3 10.3-4.1 12-.7 1.6-1.8 4.6-2.3 6.5-1.1 4-9 23-10.2 24.5-.4.5-1.7 4-2.9 7.7-1.3 3.7-2.7 7.1-3.2 7.4-1.5.9-2.8 5-4.9 14.9-1 4.9-3.7 14.2-5.9 20.5-2.1 6.3-5.8 17.6-8.1 25-2.3 7.4-5.5 17.3-7 22-1.5 4.7-4.2 13-6 18.4-1.8 5.5-4.6 12.9-6.1 16.4-1.8 3.9-2.9 8.1-2.9 10.8 0 5.1-2.4 10.3-10.4 22.6-14.7 22.7-25.7 48.9-34.6 82.5-3.4 12.6-4.3 14.9-8.3 20-2.5 3.2-6.5 9.6-8.9 14.3l-4.3 8.5v14.5c0 8 .5 17.4 1.1 20.9.9 5.1.8 6.9-.2 9-2 3.8-1.7 6.7 1.1 10.9 3.4 5 3.2 7.8-1.8 17.9-8.8 18-9.2 19.5-9.1 32.8 0 17.8 2.2 27.2 7.8 34.8 2 2.7 2.1 4.1 2.1 23 0 24.4.5 26.5 8.7 35.3 5.5 5.8 5.9 6.6 7.3 14 1.9 10.4 5.4 37.3 6.2 47.7.4 6.3 1.2 9.3 3.3 13.2 2.1 3.9 2.9 6.7 3.2 12.7.3 4.3 1 8.4 1.7 9.2.7.8 2.3 7.4 3.6 14.8 1.4 7.3 3.6 17.6 4.9 22.8 1.3 5.2 2.7 12 3.1 15 1.2 9.4 3.6 18.3 6.1 23 6.1 11.3 22.8 65.8 28.4 92.4 1.6 7.8 3.8 17 4.9 20.6 2.8 9.2 5.6 21.5 8.1 36 1.3 7.1 4.5 19.5 7.5 28.5 3.7 11.1 5.9 19.6 7.1 28 .9 6.6 2.3 13.8 3.1 16 1.6 4.1 2.8 13.8 3.9 30 .5 7 .3 9.3-.7 10.2-.8.6-5.2 1.3-9.7 1.5-8 .3-8.5.5-11.3 3.6-2.6 2.9-2.9 4-3 10.5-.1 3.9-.4 8.5-.8 10.2-.6 2.8-.9 3-4.9 2.7-3.5-.2-4.4.2-5.8 2.3-2.5 3.8-1.1 9 3 11.7 4.5 2.9 5.3 8 2.5 15.5-1.6 4.2-2.6 5.4-4.7 5.9-5.5 1.2-8 2.6-12.7 7.4-4.5 4.6-5.2 4.9-8.5 4.4-4.5-.7-10 1.8-10 4.5 0 1 .9 2.6 2 3.6 2.7 2.5 2.6 8.4-.2 12.1-1.2 1.6-4.1 4.9-6.4 7.4-4.6 4.8-6.4 8.5-6.4 12.8 0 4.6-2.1 10.3-4.4 12.6-4.2 3.8-7.6 9.8-7.6 13.2 0 5.1-1.3 7.3-8.7 15-5.8 6-7.8 7.4-13.2 9.2-3.6 1.2-7.9 2.2-9.6 2.2-9.5 0-20.5 7-23.9 15.2-2.9 6.9-3 7.1-8.2 9.8-2.7 1.4-7.8 4.6-11.4 7.1-3.6 2.6-8.4 5.6-10.8 6.8-2.3 1.2-6.7 4.4-9.7 7.1-6 5.4-6.5 5.6-17.9 6.4-13.3 1-22.5 6.7-26.2 16.3l-1.7 4.3H39V1007.3l5.8-.7c3.2-.4 11.2-1.8 17.8-3.2 6.5-1.4 14.2-2.9 17-3.4 2.8-.5 6.9-1.3 9-1.9 2.2-.5 13.1-2.8 24.4-5.1 11.3-2.2 24.8-5.1 30-6.5 12.9-3.2 17.1-2.8 22.1 2.2zM904 1902.5c0 .5 2.4 3.5 5.3 6.5 6.8 7.1 17.7 20.2 17.7 21.1 0 .4 1.2 2.1 2.8 3.7 1.5 1.7 3.9 4.5 5.4 6.3 1.5 1.9 4.1 5.1 5.8 7.1 1.7 2 4.7 7 6.7 11 1.9 4 4.7 8.8 6.2 10.8 3.2 4.2 8.1 13.6 8.1 15.6 0 .8.4 1.4.9 1.4 2.8 0 17.1 18.9 17.1 22.6 0 .6 1.2 2.9 2.6 5 1.5 2.1 3.8 5.9 5.2 8.4 1.4 2.5 4 6.3 5.9 8.4 1.8 2.2 4.2 5.8 5.3 8 1.1 2.3 3.4 5.9 5 8.1 3.3 4.5 4.2 5.8 11.6 17.2 3 4.4 5.4 8.4 5.4 8.8 0 .9 5.5 10.2 11.8 19.9 2.4 3.7 4.5 7.3 4.6 8 .1.6 1.5 2.5 3.1 4.3 4.3 4.5 12.5 15 12.5 15.9 0 .4 2.5 4.9 5.5 10 3.8 6.3 7.4 10.9 11.4 14.3 6.3 5.4 9.8 11.3 19.3 32 2.6 5.7 6.8 13.1 9.1 16.5 6.4 9 16.3 27.2 21.2 39 5.6 13.5 10.8 24.8 17.1 37.1 2.9 5.5 7 14.3 9.2 19.6 2.3 5.2 5.9 12.9 8.1 17 2.2 4.1 5.8 12.2 8 17.9 11.5 30.4 16.8 42.2 32.4 72 5.9 11.3 8.3 17.1 10.7 26.3 1.7 6.5 3.5 12.9 4 14.3.9 2.3 15.6 12.5 20.9 14.6 5.2 1.9 6.1 3.6 6.1 11.2 0 8.6 1.9 16.6 5.9 24.4 6.2 12 9.2 15.4 19 21.9 5.2 3.4 10.4 7.7 11.5 9.4 1.2 1.9 2.3 5.9 2.7 9.6.4 4.3 1.5 7.5 3.1 10.1 1.4 2 5.1 11.6 8.3 21.2 6.8 20.8 12.4 35.2 17 43.7 1.9 3.3 4.7 10.6 6.4 16 1.7 5.5 4 10.8 5.1 11.8 2.4 2.2 2.6 6.9.4 12.4-.8 2.1-1.4 5.4-1.2 7.2.3 3 .7 3.4 4 4 2.1.3 4.6 1.3 5.7 2.3 2.3 2.1 9.1 15.9 11.8 24.1 1.1 3.3 4.6 12.5 7.8 20.5s7.5 20.6 9.7 28c2.2 7.5 5.6 16.6 7.8 20.5 3.9 7.1 6.3 13.4 12.6 32.5 1.9 5.7 5.7 14.7 8.3 20 2.7 5.2 7.1 16.1 9.9 24.1 4.1 11.9 21.2 54.5 26.7 66.4.7 1.6 3.9 9.3 7 17 3.2 7.7 6.3 15.1 7 16.5.7 1.4 2.7 6.7 4.4 11.8 1.8 5.1 4.6 12.5 6.3 16.5 1.6 4 5.4 14.4 8.4 23.1 3 8.8 6.5 17.7 8 19.9 2.9 4.4 10.5 26.7 10.6 31.2.1 1.6-1.4 6.1-3.2 10-3.3 6.9-3.4 7.3-4.1 25.5-.4 10.2-1 19.3-1.4 20.3-.4 1-2.8 2.9-5.4 4.1-5.4 2.8-13.1 9.9-13.1 12.1 0 1.2 1.6 1.5 9 1.5 11.3 0 13 1 17.6 10.1 4.1 8.2 4.2 10.1.8 18.2-1.5 3.4-2.9 8.7-3.1 11.9l-.6 5.6 4.1 2.9 4 2.8.4 14.5c.3 8 .8 15.5 1.3 16.7l.7 2.3H973.4l-503.9-.1 5.9-3c3.7-1.9 5.5-3.4 4.7-3.8-.7-.5.3-1.4 2.9-2.6 3.9-1.7 4.4-1.8 9.4-.2 3.8 1.2 8.9 1.7 18.2 1.7 14.1 0 15.2-.4 26.4-7.5 4.6-3 6.1-3.4 9.3-2.9 3.1.5 5.3-.2 13.2-4 5.2-2.6 11-6 13-7.7 3.2-2.8 3.5-3.6 3.5-8.4 0-7.6-2.6-20.1-4.9-23.9-1.1-1.7-3.8-4.7-6-6.4-2.3-1.8-4.4-4.5-4.7-6-.4-1.5-1.9-5.2-3.5-8.3-4.4-8.9-5.8-15.5-4.7-22.9.9-5.8.7-6.9-1.7-13.2-1.5-3.7-3.1-7-3.6-7.4-.5-.3-.9-1.7-.9-3.2 0-1.5-1.1-5-2.4-7.7-1.2-2.8-2.9-6.8-3.6-9-.7-2.2-3.7-8.9-6.6-14.9-6-12.1-6.4-14.8-3.3-23.4 1.7-4.8 3.7-21.1 3.9-32.7 0-1.2-2.4-4.6-5.5-7.8-5.4-5.6-5.6-5.7-10.9-5.7-3.2 0-7.1.8-9.7 2-6.6 2.9-8.5 2.6-10.7-1.8-1.1-2-2.3-5.5-2.7-7.7-.3-2.1-1.3-5.2-2.1-6.7s-1.4-4.9-1.4-7.5c-.1-2.6-.5-6.8-1.1-9.3-.5-2.5-1.4-10.1-2-17-1.6-19.2-1.5-19.2-5-41.5-3.2-20-3.3-22.6-3.7-53.5-.2-20.5.1-35.6.8-41 2.1-15.8 5.1-57.2 5-69.5 0-3.3.6-9.8 1.3-14.5.7-4.7 1.2-10.8 1-13.5-.3-2.9.3-7.5 1.3-11 2.3-8.2 3.4-29.3 3.4-64.5 0-49.6-.4-58.9-2.5-63.5-1-2.2-2.7-5.1-3.7-6.4-1.3-1.7-1.8-4.1-1.8-8.8 0-4.3-.7-8-2.1-11.2l-2-4.8 3-7.9c1.7-4.4 3.1-8.5 3.1-9.2 0-.7 1.4-3.3 3-5.7 1.7-2.4 3-4.6 3-4.8 0-.3 2-4 4.3-8.3 6.7-12.1 9.7-27 9.7-47.5 0-12.1-1.1-17.1-4.6-21-1-1.1-1.4-3.2-1.2-6.5.3-4.5.7-5.1 5.2-8.5 4.1-3.2 5.8-3.7 11.2-4.1 5-.3 7.2-1 10.6-3.4 2.3-1.6 4.8-4.1 5.5-5.4 3.4-6.5 14.9-33.6 22.5-53 2.3-5.8 10.8-23.8 18.8-40 14.1-28.2 23.7-44.9 37.3-64.5 7.7-11.2 20.1-31 21.9-35 .7-1.7 3.5-5.7 6.3-9 4.9-5.8 8.5-11.3 13.7-20.5 1.4-2.5 3.5-5.4 4.7-6.4 1.2-1.1 2.1-2.5 2.1-3.3 0-.8 1.8-3.6 4-6.2s4-5.1 4-5.7c.1-1.2 7.4-9.4 8.6-9.5.5 0 2.9-3.1 5.3-6.9 2.4-3.7 5.4-7.4 6.7-8.1 1.3-.7 2.4-1.8 2.4-2.4 0-.6 1.1-2.2 2.5-3.5 1.4-1.3 2.5-3.1 2.5-4.1 0-.9 1.7-3.6 3.8-5.8 2-2.2 4.6-5.2 5.6-6.6 1-1.4 2.5-2.5 3.2-2.5.8 0 1.4-.7 1.4-1.5s2.9-4.4 6.5-8c3.6-3.5 6.5-6.8 6.5-7.3s.7-1.6 1.6-2.3c.9-.8 5.9-6.4 11-12.5 5.1-6 11.1-12.7 13.4-14.6 2.3-2 4-4 4-4.3-.1-.4 1.3-2.3 3.2-4.4 1.8-2.1 4-5 4.8-6.6 1.5-2.9 4.5-6.5 5.5-6.5s12.5-11.5 12.5-12.5c0-1.4 13.4-14.5 14.8-14.5.5 0 2.7-2.6 4.8-5.8 2.2-3.1 5.5-7.3 7.5-9.2 2-1.9 5.5-5.9 7.9-8.8 2.7-3.4 5.3-5.5 7-5.9 3-.6 13-11.8 13-14.5 0-.9 2.2-3.5 4.9-5.9 2.7-2.4 8.1-7.3 12.1-10.9 4.1-3.6 10.2-9.2 13.8-12.5 3.5-3.3 7.5-6.7 8.8-7.5 1.3-.8 2.4-2 2.4-2.6 0-.6 1.4-1.7 3-2.4 1.7-.7 4-2.4 5.1-3.9 1.1-1.4 3.5-2.9 5.2-3.2 2.9-.5 3.8.1 8.9 5 3.2 3.1 5.8 6 5.8 6.6zm-226.6 214c-.4.8-1 1.5-1.5 1.5-.4 0-.6-.7-.3-1.5.4-.8 1-1.5 1.5-1.5.4 0 .6.7.3 1.5z"/><path d="M1749.8 222.8c-4.7 3.1-12.8 8.6-18 12.1-13.1 9.1-31.1 21.5-38.8 26.6-3.6 2.4-10.8 7.4-16 11-5.2 3.7-10.8 7.4-12.4 8.3-1.6.9-4.9 3.3-7.5 5.2-2.5 2-9.1 6.6-14.6 10.3-19.4 13-67 45.5-73.5 50.2-2.9 2.1-18.7 12.9-30 20.5-3.7 2.5-8.3 5.6-10.3 7-1.9 1.4-8.2 5.7-13.9 9.6-44.7 30.5-43.8 29.8-43.8 33.2v204.7c0 159.4.3 202.2 1.3 203.2 1.2 1.2 6.9-.5 26.7-7.8 3-1.1 7.3-2.5 9.5-3.1 2.2-.5 6.3-1.8 9-2.8 8.8-3.1 14.9-5.1 19-6.2 2.2-.5 6.3-1.9 9.1-2.9 2.8-1.1 6.9-2.3 9-2.6 2.2-.3 5.6-1.4 7.6-2.4 2.1-1.1 4.6-1.9 5.7-1.9 1.1 0 5.7-1.1 10.3-2.5 22.2-6.8 26.6-8 49.8-13.9 5.8-1.5 13.4-3.6 17-4.6 3.6-1 11.9-3.1 18.5-4.6 6.6-1.4 15.2-3.5 19-4.5 3.9-1 10.2-2.5 14-3.3 3.9-.8 9.3-2 12-2.6 2.8-.6 10-2.2 16-3.5 21.7-4.6 29.7-6.2 36.5-7.4 3-.5 9.1-1.6 13.5-2.5 20.8-4.1 26-5 44-7.8 3.9-.6 8-1.7 9.3-2.5l2.2-1.3V600.6c0-127.9.1-133.4 1.8-134.9 1.7-1.6 11.1-1.7 115.3-1.7 89.3 0 113.9-.3 115.2-1.3.9-.6 2.3-4.1 3.1-7.7 1.5-6.9 3.5-15.2 6.5-26.5 1-3.9 3.1-12.4 4.6-19 1.5-6.6 3.5-14.9 4.5-18.5 1-3.6 2.1-8.4 2.5-10.8.4-2.6 1.4-4.6 2.5-5.2 2.4-1.3 204.9-1.3 206.9-.1.8.5 2.2 4.7 3.2 9.3 2 9.3 4 17.7 6.9 28.8 4.6 18.1 5.3 21 7.1 29 3 13.9 4.8 19.4 6.6 20.7 1.3 1 25.9 1.3 114.9 1.3 96.7 0 113.3.2 114.3 1.4.9 1.1 1.2 16.2 1.1 59.6 0 42.5.3 58.6 1.1 59.6 1 1.2 28.8 1.4 180 1.4 113.2 0 179-.4 179.4-1 .9-1.4.7-168.9-.2-170.5-.9-1.5-5.6-5.1-17.3-13.1-4.1-2.8-13.6-9.2-21-14.3-7.4-5.1-17.1-11.7-21.5-14.7-4.4-2.9-13.8-9.4-21-14.4-7.1-4.9-15.6-10.7-18.9-12.8-3.2-2-7.9-5.3-10.5-7.3-2.5-1.9-6-4.4-7.7-5.5-3.3-1.9-9.6-6.3-26.4-17.9-5.2-3.6-14.4-9.9-20.5-14-17.4-11.7-27.6-18.8-33.4-23-3-2.2-6.9-4.9-8.8-6-3.1-1.9-21.3-14.3-31.3-21.4-2.5-1.7-8.8-6-14-9.6-5.2-3.5-15.1-10.2-22-14.9l-12.5-8.5h-431l-431-.1-8.7 5.8z"/><path d="M2099.7 395.7c-.8 1.6-1.7 4.6-2.1 6.8-.3 2.2-1.5 7.4-2.6 11.5-1.8 7.2-3.1 12.3-7 29-3.4 14.3-7.1 29.4-11 44.7-1 4.3-3.3 13.6-5 20.8-3.1 13-5.2 21.6-9 36.2-1.1 4.3-2.5 10.3-3 13.3-.6 2.9-1.7 7.7-2.4 10.5-1.5 5.1-3.8 14.1-7.6 29.5-1.2 4.7-2.8 11.6-3.5 15.5-.7 3.8-1.8 8.3-2.5 10-.6 1.6-1.8 5.9-2.5 9.5-1.4 6.5-2.9 12.8-6.5 27-1 4.1-2.6 10.6-3.5 14.5-4.6 18.8-5.5 22.5-7 28.3-1.2 4.8-1.3 6.7-.4 8.3 1 2 1.7 2.1 10.3 1.5 5-.3 21.3-1 36.1-1.6 14.9-.6 30.6-1.3 35-1.6 13.4-1.1 131.5-.7 155 .4 12.1.6 32.6 1.6 45.5 2.2 12.9.6 24.9 1.5 26.5 2 1.7.5 7.2 1 12.4 1.2 11.8.4 12.2-.1 9.6-9.8-.9-3.8-2.5-10.5-3.5-14.9-2.2-9.9-6.2-26.3-10.5-42.5-1-3.6-2.5-10.1-3.5-14.5-2.8-13-5-21.7-6.6-26.8-.8-2.7-2.2-8.1-2.9-12-1.6-7.9-3.6-16.4-6.5-27.2-2.4-9-4.9-19.3-6.5-27.5-.8-3.6-2-8.6-2.9-11-.8-2.5-1.8-6.3-2.1-8.5-.4-2.2-1.3-6-2-8.5-.8-2.5-2.4-8.8-3.6-14-3.4-15.2-4.5-20-6.8-29-3.1-12-5.6-22.4-7.6-30.5-.9-3.9-2.6-10.6-3.7-15s-2.9-12.3-4-17.5c-1.1-5.2-2.7-10.3-3.6-11.3-1.4-1.6-6.9-1.7-89.3-1.7h-87.8l-1.4 2.7zM2089.5 757.2c-13.7.4-28.6 1.1-33 1.7-4.4.6-20.1 1.8-35 2.7-14.8.9-29.9 2-33.5 2.4-3.6.5-13 1.4-21 2-8 .6-17 1.5-20 2s-12.5 1.6-21 2.5c-8.5.9-19.1 2.2-23.5 3-4.4.7-12.9 1.9-19 2.5-6 .6-12.6 1.6-14.5 2-1.9.5-7.5 1.4-12.5 2-8.7 1-20 2.9-42.5 7-5.8 1.1-13.9 2.4-18.1 2.9-4.2.6-8.7 1.5-10.1 2-1.3.5-6 1.4-10.4 2.1-7.5 1.1-18.2 3.2-32.4 6.5-3.6.9-9.9 2.1-14 2.9-4.1.7-10.2 2-13.5 2.9-3.3.8-11.4 2.7-18 4.2s-14.9 3.5-18.5 4.5c-3.6 1-8.5 2.1-11 2.5-2.5.3-6.1 1.2-8 2-1.9.8-6.6 2.1-10.5 3-3.8.8-11 2.6-16 3.9-4.9 1.4-11 3-13.5 3.7-9.8 2.6-28.8 8-42.5 12.2-4.4 1.3-12 3.6-17 5.1-4.9 1.5-10.9 3.4-13.3 4.3-2.4.8-6.6 2.1-9.5 2.8-2.9.8-9 2.8-13.7 4.5-4.7 1.7-10.8 3.7-13.5 4.4-2.8.7-6.5 2.1-8.2 3-1.8.9-4 1.6-4.9 1.6-.9 0-3.5.9-5.8 1.9-2.3 1.1-6.2 2.6-8.8 3.5-2.7.9-6.9 2.3-9.5 3.2-2.7.8-6.8 2.4-9.3 3.4-2.5 1-7.9 3-12 4.5-8.5 3.1-13.9 5.2-22.6 8.9-3.4 1.4-6.8 2.6-7.5 2.6-.8 0-2.7.9-4.4 2-1.6 1.1-3.7 2-4.5 2-.9 0-3.3.9-5.5 2-2.1 1.1-5.4 2.5-7.4 3.1-2 .6-4 1.5-4.6 1.9-.5.5-3.2 1.7-6 2.8-21.3 8.4-76.8 34.7-80.1 38-1.2 1.1-1.4 34.2-1.4 216.1 0 239.8-.7 219.8 7 214.7 2.2-1.4 4.5-2.6 5.2-2.6.8 0 2.9-.8 4.8-1.8 1.9-1.1 11.4-5.4 21-9.6 9.6-4.3 19.3-8.6 21.5-9.6 9.9-4.7 15.5-7 16.6-7 .6 0 2.8-.9 4.8-2s7.4-3.5 12.1-5.4c4.7-1.9 11.9-4.8 16-6.6 4.1-1.7 9-3.6 10.9-4.2 1.9-.5 5.1-1.9 7-2.9 2-1 4.3-1.9 5.1-1.9.8 0 3.8-1.1 6.5-2.5 2.8-1.3 5.6-2.5 6.4-2.5.8 0 3.2-.9 5.5-1.9 2.3-1 7.3-3 11.1-4.4 3.9-1.4 10-3.7 13.7-5.1 3.6-1.5 7.1-2.6 7.8-2.6.6 0 2.5-.7 4.2-1.6 1.7-.9 5.1-2.2 7.7-2.9 6.1-1.8 15.8-5.2 19.8-7.1 1.7-.7 3.8-1.4 4.7-1.4.9 0 3.3-.7 5.4-1.6 2-.9 6.4-2.5 9.7-3.5 6.6-1.9 13.4-4.2 21-6.9 2.8-1 6.8-2.3 9-2.8 2.2-.6 6.3-1.8 9-2.7 8.7-2.8 24.6-7.5 43.5-12.9 5.2-1.5 12.4-3.6 16-4.7 7.4-2.2 15.1-4.2 26-6.8 13.8-3.4 20.5-5.1 25-6.6 2.5-.8 7.1-1.9 10.3-2.4 3.2-.6 8.8-2 12.4-3.1 3.6-1.1 7.6-2 8.9-2 1.3 0 4.4-.7 7-1.6 2.5-.8 8-2.2 12.2-2.9 4.3-.8 10.4-2 13.7-2.8 7-1.7 18.9-4.1 33-6.7 5.5-1 11.1-2.2 12.5-2.8 1.4-.5 5.6-1.3 9.5-1.7 3.8-.4 8-1.1 9.4-1.7 1.4-.5 7.3-1.6 13.1-2.4 5.8-.8 13.4-2 17-2.8 3.6-.8 9.7-1.7 13.5-2.1 3.9-.4 9.5-1.3 12.5-2 3-.8 10.5-1.9 16.5-2.5 6.1-.6 12.9-1.5 15.3-2.1 2.4-.5 10.7-1.6 18.5-2.4 7.8-.8 18.9-2.2 24.7-3 5.8-.8 15.7-1.9 22-2.4 6.3-.5 18.7-1.7 27.5-2.5 56.7-5.5 110.5-7.7 179.5-7.7 44.8.1 116.8 1.9 123 3.1 2.5.5 16.4 1.6 31 2.5 14.6.9 29.7 2.1 33.5 2.6 3.9.5 12.2 1.4 18.5 1.9 6.3.6 15.6 1.5 20.5 2.1 5 .5 16.8 1.9 26.3 3 9.5 1 19.2 2.3 21.5 2.8 2.3.5 7.4 1.2 11.2 1.6 3.9.4 10.8 1.3 15.5 2.1 4.7.9 13 2.1 18.5 2.9 13.3 1.8 33.3 5.1 42 7 3.9.8 10.2 1.9 14 2.5 3.9.5 11.5 1.8 17 3 5.5 1.1 14.7 2.9 20.5 4.1 5.8 1.1 14.1 2.9 18.5 3.9 4.4 1.1 10 2.2 12.5 2.6 2.5.3 7.2 1.4 10.5 2.4s8.5 2.2 11.5 2.6c3 .3 6.6 1.1 8 1.6 1.4.6 6.3 1.8 11 2.8 8.7 1.8 16.1 3.6 28.5 6.9 3.9 1 11.7 3.1 17.5 4.6 5.8 1.4 13.2 3.5 16.5 4.5 3.3 1 7.6 2.2 9.5 2.5 1.9.4 6.2 1.5 9.5 2.5s9.2 2.8 13 3.9c3.9 1.1 9.9 3 13.5 4.1 3.6 1.2 8.5 2.6 11 3.1s6.6 1.8 9.2 2.9c2.6 1.1 5.5 2 6.6 2 1.1 0 4.1.9 6.8 1.9 2.7 1 9 3.1 13.9 4.6 5 1.5 11.3 3.6 14 4.6 2.8 1 6.6 2.2 8.5 2.8 1.9.6 7.3 2.4 12 4.1 4.7 1.8 10.5 3.7 13 4.5 2.5.7 6.1 2 8 2.8 1.9.9 5.5 2.2 8 3 10.8 3.6 16.5 5.8 17.4 6.7.6.6 1.6 1 2.4 1 1.3 0 15.2 5 20.7 7.5 3.7 1.7 22.5 9.2 28 11.1 2.2.8 5.4 2.1 7 2.9 1.7.8 6.4 2.8 10.5 4.5 4.1 1.7 9.2 3.9 11.2 5s4.2 2 4.9 2c.7 0 3.5 1.1 6.3 2.4 2.8 1.3 7.6 3.5 10.6 4.9 18.1 8.2 44.4 21 48.7 23.8 2 1.2 2.5 1.2 3.8-.2 1.3-1.3 1.7-6.7 2.5-31 1.8-56.5 2.9-94.9 4.5-161.4.9-36.9 2.3-90.9 3.2-120 2-68.1 2.6-91.2 2.7-106l.1-12-6.5-3.1c-13.2-6.4-17.7-8.4-18.9-8.4-.7 0-2.9-.9-4.9-2-2-1.1-6.4-3.1-9.7-4.4-3.3-1.4-10.8-4.5-16.7-7-5.9-2.5-11.3-4.6-12-4.6-.7 0-2.8-.9-4.6-2-1.8-1.1-3.7-2-4.3-2-.7 0-3.7-1.1-6.8-2.4-3.1-1.3-8.1-3.3-11.1-4.4-19.6-7.4-24.7-9.4-26.5-10.2-1.1-.6-4-1.6-6.5-2.4-2.5-.8-11.9-4.2-20.9-7.5-9.1-3.4-16.9-6.1-17.5-6.1-.5 0-2.8-.8-5-1.9-4.4-2-14-5.3-22.2-7.6-2.9-.8-6.5-2.2-8-3-1.6-.8-3.7-1.5-4.7-1.5s-3.4-.7-5.5-1.6c-2-.9-6.4-2.4-9.7-3.4-3.3-1-7.3-2.2-9-2.8-1.6-.5-7-2.2-12-3.7-4.9-1.5-11.5-3.6-14.5-4.5-6.2-2-19.2-5.9-32-9.6-4.7-1.3-11.3-3.3-14.7-4.4-3.4-1.1-6.8-2-7.5-2-.7 0-4.9-1.1-9.3-2.4-4.4-1.3-11.6-3.3-16-4.4-4.4-1.2-12.3-3.2-17.5-4.6-5.2-1.4-14-3.6-19.5-4.9-5.5-1.4-12-3-14.5-3.6-2.5-.7-8.3-2-13-3-4.7-1.1-11.2-2.6-14.5-3.4-11.5-2.9-28.4-6.5-49.8-10.7-5.4-1.1-10.1-2.1-10.6-2.4-.4-.3-4.1-1-8.2-1.6-6.6-1-22.8-3.9-38.9-7.1-3-.6-10.9-1.9-17.5-2.9s-16.7-2.6-22.5-3.5c-5.8-.8-16.1-2.5-23-3.5-14.2-2.3-32.8-4.8-44.5-6.1-4.4-.5-15.9-1.8-25.5-2.9-9.6-1.1-22.7-2.5-29-3-6.3-.5-14.9-1.4-19-1.9s-20.3-1.7-36-2.5c-15.7-.9-30.3-2.1-32.6-2.6-8.8-2-153.9-3.3-206.9-1.8zm90.9 81.1c3.8 3.4 13.6 12.9 21.8 21l14.8 14.9v17.7c0 12.4-.4 18.1-1.2 18.9-.9.9-8.1 1.2-26.3 1.2-18.2 0-25.4-.3-26.3-1.2-.8-.8-1.2-4.7-1.2-11.1 0-5.4-.5-10.7-1-11.7-1-1.9-2.2-1.9-24.7-1.4-14.6.3-24.2.9-25 1.6-2 1.6-1.9 46.1.1 48.1 1.2 1.2 6.4 1.3 31.6.9l30.1-.5 12.3 11.9c6.7 6.5 16.6 16.1 21.9 21.3l9.7 9.4v74.2l-21.2 20.5-21.1 20.5-14.1.7c-7.8.3-24.9 1.1-38.1 1.6l-24 1-4.3-3.5c-3.3-2.7-20.8-18.7-37.9-34.7-.9-.8-1.3-5.9-1.4-18.1v-18.7c.1-2.6 5.6-3.6 23.6-4.3 8.8-.4 18.4-1 21.3-1.5 3.2-.6 6.2-.6 7.7 0 2.5.9 2.5 1.1 2.5 12.4 0 7.9.4 11.7 1.3 12.4.7.6 9.7.8 24.7.6 20.6-.4 23.7-.6 24.8-2.1.9-1.2 1.2-7.7 1.2-23.9 0-27.4.2-27-10.5-25.5-3.8.5-17.2 1.2-29.7 1.4l-22.7.5-3.3-2.4c-1.8-1.3-11.7-10.2-22-19.7l-18.7-17.2-.1-37.7v-37.7l3.2-3.8c5.1-5.9 35.9-37.6 38.2-39.3 2.5-1.8 16.1-2.5 52.1-2.8l25-.2 6.9 6.3zm102-4.3c3.3.6 16.7 1.4 29.6 1.9 23.4.9 48.5 2.8 76 5.7 8 .9 20.7 2.2 28.2 2.9 7.6.7 19.7 2 27 3 7.3.9 15.2 1.9 17.6 2.1 8.3 1 8.3 1 8 29.1l-.3 24.7-2.7.7c-1.6.4-7.5-.1-14-1.2-6.2-1-15.6-2.2-20.8-2.7-5.2-.6-16.1-1.8-24.2-2.8-12.1-1.5-14.9-1.5-16.2-.5-1.4 1.2-1.6 11.7-1.6 103 0 55.9-.4 102.1-.8 102.7-1.4 2.1-4.4 2.2-22.9.8-22.2-1.8-29.9-2.7-31-3.8-.4-.4-.9-47.2-1.1-103.9-.1-69.4-.6-103.5-1.3-104.2-1-1-31.2-3.1-58.7-4-8.4-.2-16.1-.9-17.2-1.5-1.9-1-2-2.2-2-25.1 0-14.7.4-24.8 1-26 1-1.7 2.2-1.9 11.2-1.9 5.5 0 12.8.5 16.2 1zm-266 6.6c1.5 1.4 1.6 14.3 1.4 131.2l-.3 129.7-2.5 1.2c-1.4.6-6.8 1.4-12 1.6-5.2.2-15.9 1.3-23.8 2.3-12.4 1.5-14.5 1.6-15.3.3-.5-.8-.9-54.5-.9-130.5 0-101.7.3-129.3 1.3-130.6 1.4-1.7 18.2-4.4 36.2-5.7 6.1-.5 11.8-.9 12.7-1 .9 0 2.4.6 3.2 1.5zm-129 17.6c9 7 29.4 24.4 34.4 29.4l5.2 5.2-.1 34.8c-.1 19.2-.4 35.9-.7 37.1-.4 1.2-3.5 5.4-6.9 9.2-3.5 3.8-6.3 7.8-6.3 8.9 0 1.2 2.3 3.9 5.8 6.7 3.1 2.5 6.2 5.9 6.9 7.3 1.6 3.5 1.8 111.3.3 114.2-.7 1.3-2.6 2.1-5.8 2.5-2.6.3-6.9 1-9.7 1.5-2.7.6-10.6 1.7-17.5 2.6-6.9.9-14 1.8-15.9 2.1-2.2.4-3.6.1-4.2-.8-.5-.8-.9-23.7-.9-51 0-43-.2-49.8-1.5-50.9-1.2-1-3.2-.9-10.3.5-4.8.9-11.6 2.1-15.2 2.6-3.6.4-9.6 1.5-13.5 2.3-3.8.9-7.3 1.6-7.7 1.6-.4 0-1.4.7-2.2 1.6-1.4 1.4-1.6 7.5-1.6 52.3 0 39.5-.3 51.1-1.2 51.8-.7.6-4.3 1.3-8 1.7-3.7.3-8.4 1.3-10.6 2-2.2.8-6.6 1.7-9.8 2.1-3.3.4-9.2 1.6-13.2 2.6-6.6 1.8-11.2 1.9-11.2.1V1008l-.1-129.5 2.1-1.7c1.1-.9 4.4-2.1 7.3-2.7 2.9-.6 8.8-1.8 13.2-2.7 4.4-.8 10.3-2 13-2.5 2.8-.5 11.5-2 19.5-3.5 8-1.4 18.8-3.4 24-4.4 5.2-1.1 12.3-2.2 15.7-2.6 3.4-.3 8.4-1.2 11-1.9 8-2.2 11.1-1.9 15.7 1.7zm635 .8c4.9.6 9.3 1.3 9.6 1.5.4.3 5.2 1.1 10.6 2 14.8 2.3 15 2.4 16.3 5.1.8 1.8 1.1 36.9 1.1 130.3 0 106.6-.2 128-1.4 129.6-1.5 2 .3 2.2-23.1-2.1-4.4-.8-11.4-1.9-15.5-2.5-10.5-1.5-12.3-2.1-13.7-4.9-1-2-1.3-29.6-1.3-129.8V861l2.1-2.1c1.3-1.3 2.8-1.9 4.2-1.5 1.2.3 6.2 1 11.1 1.6zm-793.6 157.7c.2 117.3.1 130.3-1.4 131.7-.8.9-2.5 1.6-3.7 1.6-1.2 0-5.3.9-9.2 1.9-22.5 6.2-34.4 8.7-36.4 7.4-1.4-.9-1.7-6.2-2.1-50.9l-.5-49.9-2.9-.3c-1.6-.2-4.7.3-7 1.2-2.3.8-6.8 2.2-10.1 3-14.6 3.7-25.2 6.8-27.2 8.2l-2.3 1.4v50.3c0 41-.3 50.7-1.4 52.2-1.2 1.7-4.1 2.8-20.6 7.5-7.1 2.1-13.1 3.9-22.6 7.1-6 1.9-8.9 1.8-9.6-.4-.2-.7-.2-59.4 0-130.5l.2-129.3 6.3-2.9c3.4-1.7 7-3 7.9-3 1 0 4.1-.9 7-1.9 9-3.2 22.1-7 26.3-7.7 3-.4 4.4-.2 5.3.8.9 1.1 1.2 14.4 1.4 50.9l.3 49.4 3.5-.1c1.9-.1 8.2-1.6 14-3.3 5.8-1.7 13.6-3.8 17.4-4.7 3.7-.8 8.6-2.4 10.7-3.5l3.9-1.9v-50.3c0-55.4-.2-53.9 6.2-55.1 1.8-.3 6.7-1.4 10.8-2.5 27.3-7.1 26.7-6.9 31.5-6.8l4 .2.3 130.2zm942.5-127.1c37.2 9.3 42.1 10.7 43.4 11.8 1.3 1.3 2.8 6 5.3 17.1.9 4.4 2.5 11.1 3.4 15 1 3.8 2.9 11.9 4.2 18 1.4 6 3.4 14.3 4.4 18.2 1.1 4 2 8.3 2 9.5 0 1.3 1.1 6.1 2.4 10.8 1.3 4.7 2.8 10.7 3.4 13.5.6 2.7 2.2 9.7 3.5 15.5 1.4 5.8 3 13.2 3.7 16.5.7 3.3 2.1 8.9 3.1 12.5.9 3.6 2 8.3 2.4 10.5.3 2.2 1.5 7.4 2.5 11.5 1.1 4.1 3.1 12.9 4.5 19.5 1.5 6.6 3.4 14.7 4.2 18 1.7 6.6 3.4 14.1 10.8 47.5.9 4.1 2.5 10.5 3.6 14.1 2.3 7.8 2.4 12.5.5 13.2-1.4.5-5.7-.5-16.1-3.8-5.4-1.7-14.3-4.3-24-7-9.3-2.7-11.3-4-12.3-8.3-.5-2-2.1-9.1-3.6-15.7s-3.6-15.4-4.6-19.5c-1.1-4.1-2.2-8.9-2.5-10.7-.8-4.2-1.7-4.8-11-7.3-4.4-1.2-10.9-3-14.5-4-3.6-1.1-9.4-2.6-13-3.5-3.6-.9-7.5-1.8-8.7-2.1-3.3-.9-6.9 3.2-7.7 8.8-.4 2.6-1.6 7.2-2.7 10.2-1 3.1-1.9 6.5-1.9 7.6 0 1.1-1.4 6.3-3.1 11.6l-3.1 9.6-3.1-.5c-1.8-.2-8.6-1.7-15.2-3.2-6.6-1.5-15.5-3.3-19.8-4.1-10.2-1.7-14.3-4-14-8 .2-4 5.2-24 9.3-36.9 1-3.3 2.1-7.8 2.5-10 .3-2.2 1.5-6.7 2.5-10 2-6.4 3.9-13.2 7-25.5 2.4-9.6 3.8-14.8 6.3-23.5 1.1-3.9 2.5-9.5 3.2-12.5.7-3 2.2-9.1 3.4-13.5 1.3-4.4 3.3-12.1 4.6-17 1.3-5 3.6-13.5 5.1-19 7.5-27.9 15-55.9 18-68 1.6-6 2.9-8.5 4.5-8.5.5 0 3.7.7 7.2 1.6zm156.3 44.9c3.1 1.4 6.3 2.5 7.1 2.5.8 0 3.5.9 6.1 1.9 6.2 2.5 16.6 5.9 21.9 7.2 5.1 1.3 6.9 3.5 11.8 15 2 4.6 4.4 10.2 5.4 12.4 1.1 2.2 3.1 6.9 4.5 10.5 1.5 3.6 3.5 8.2 4.6 10.2 1.1 2 2 4.2 2 4.9 0 .7 1.2 3.7 2.6 6.8 4.2 9 6.1 13.2 8.9 20.1 1.5 3.6 3.8 8.8 5.1 11.6 1.3 2.8 2.4 5.5 2.4 5.9 0 .4.9 2.6 1.9 4.9 4.8 10.1 7.1 15.6 7.1 16.6 0 .6.9 2.8 2 4.8s3.3 7.1 5 11.2c1.7 4.1 4 9.3 5 11.6 1.1 2.3 2 4.5 2 5s.6 2 1.3 3.4c.7 1.4 2.1 4.6 3.1 7.3 1.5 3.9 4.9 7.7 5.8 6.5.2-.2.5-30.7.8-67.8l.5-67.5 3.3-.3c1.9-.2 4.5.4 6.5 1.6 1.7 1.1 4.3 2.3 5.7 2.7 1.4.3 4.3 1.5 6.5 2.5s6.5 2.8 9.5 4.1c14.1 5.8 19.8 8.9 20.4 11.1.8 3 .8 254.6 0 257.5-.5 1.7-1.4 2.3-3.6 2.3-2.6 0-5.4-1.1-20.4-8.1-2.3-1-4.7-1.9-5.3-1.9-.7 0-2.9-.9-4.9-1.9-2-1.1-6.8-3.3-10.7-4.9-4.6-1.9-7.4-3.8-8.2-5.3-2.6-5.3-11.3-25.6-11.3-26.5 0-.5-.8-2.7-1.9-4.9-5.3-11.3-7.1-15.3-7.1-15.9 0-.4-1-3.1-2.3-5.9-1.3-2.9-3.4-7.7-4.6-10.7-1.3-3-3.4-7.8-4.7-10.6-1.3-2.8-2.4-5.4-2.4-5.8 0-.4-.8-2.6-1.9-4.9-1-2.3-3.1-7.1-4.6-10.7-1.4-3.6-3.5-8.3-4.6-10.5-1-2.2-3.2-7.4-4.9-11.5-1.7-4.1-3.7-8.9-4.5-10.5-.7-1.7-2.8-6.4-4.5-10.5-7.3-17.5-12.1-27.2-13.5-27.4-.6 0-1.2 25.4-1.5 68.7-.4 55.8-.8 68.9-1.8 69.6-1.8 1.1-48.2-14.5-49.9-16.7-1.8-2.3-1.9-259.2-.1-261 1.8-1.8 4.1-1.5 10.4 1.3zM1511.5 965c22 14.6 24.3 16.4 25 20.2.3 1.8.5 10 .3 18.3l-.3 14.9-4 2.3c-2.2 1.3-6.7 3.2-10 4.2-13.4 4.4-16.2 5.3-20.5 7.1-7.3 3-15.1 5.2-16.6 4.6-1.1-.4-1.4-3-1.4-11.1 0-8.8-.3-10.7-1.6-11.2-1.6-.6-4.9.5-19.9 6.2-3.8 1.5-8.8 3.3-11 4.1-2.2.9-5.8 2.4-8.1 3.5-2.2 1-4.5 1.9-5.1 1.9-.5 0-1.7.8-2.6 1.8-1.5 1.6-1.7 8.9-1.7 77-.1 41.4.2 75.7.6 76.3.8 1.4 3.2.8 12.4-3.1 7.1-3 11.1-4.6 23.4-8.9 4.9-1.8 11.4-4.8 12.6-5.8.3-.3.7-5.9 1-12.6l.5-12.2 5-2.4c2.8-1.4 10.4-4.4 17-6.7s13.9-4.9 16.2-5.8c2.3-.9 6-1.9 8.2-2.2 3.7-.6 4.1-.4 5.1 2 .5 1.5 1 9.2 1 17.2 0 16.1-.2 16.8-7.4 26.4-2.3 3-5 6.6-5.9 8-.9 1.4-3.4 4.8-5.5 7.6-2 2.8-7.9 11-13.1 18.3-5.2 7.3-10.3 13.3-11.5 13.7-1.2.3-3.9 1.4-6.1 2.4-6.5 2.9-20.3 8-21.7 8-.8 0-2.2.6-3.3 1.4-1.1.7-3.6 1.8-5.5 2.4-1.9.6-6 2-9 3.3-3 1.2-8.2 3.3-11.5 4.6-3.3 1.3-6.8 2.8-7.7 3.4-4 2.1-7.1 1-19.5-6.9-2.3-1.5-8.5-5.3-13.7-8.5-5.2-3.3-10.3-6.8-11.3-7.9-1.7-1.9-1.8-6.5-2.1-88.2-.1-47.3 0-87.5.3-89.2.5-2.7 10.3-18.2 25.3-39.9 2.6-3.9 6.7-9.8 9.1-13.2 4.6-6.8 9.4-11.3 11.9-11.3.8 0 3.4-.9 5.6-1.9 3.9-1.9 6.7-3 18.1-7.1 2.8-1 6.4-2.5 8-3.4 1.7-.9 3.5-1.6 4.2-1.6 1.1 0 12.4-4.2 21.3-8 7.7-3.3 9.1-2.9 25.5 8z"/><path d="M1864.8 911.6c-.3.3-6.5 1.4-13.8 2.5-7.3 1-13.7 2.2-14.2 2.5-.5.3-3.9 1-7.4 1.4-3.6.5-7.1 1.4-7.9 2-2.1 1.7-2.2 45.6-.2 48.4 1.3 1.8 1.7 1.8 9.3.2 4.3-1 13.3-2.6 19.9-3.7 6.6-1 13.5-2.2 15.3-2.5 5.9-1.1 6.2-2.5 6.2-26.2 0-12.8-.4-22.1-1-23.3-1-1.8-4.9-2.6-6.2-1.3zM2687.5 1012c-1 1.1-2.6 5.5-3.6 9.8-1 4.2-2.8 11.1-3.9 15.2-2.7 9.8-2.2 10.9 6.7 13.8 7.5 2.4 11.8 2.8 12.8 1.2.6-1-1.1-10-4.5-22.5-1-3.9-2.2-9.3-2.5-12.2-.8-6.4-2.5-8.1-5-5.3zM2106 1233.2c-5.2.4-18.3 1.2-29 1.8-19.8 1.1-24.2 1.4-47.5 2.5-7.1.3-14.3 1-16 1.5-1.6.5-10.2 1.4-19 2-16.9 1.1-28.1 2.4-94.9 11-3.8.5-7.5 1.5-8.1 2.2-1.4 1.4-6.5 18.2-6.5 21.2 0 1.1-1.2 6.3-2.6 11.5-3.3 12.3-5.7 21.9-8.9 35.6-1.4 6-3.4 14.4-4.5 18.5-4.6 18-5.3 20.8-6.3 25.5-.5 2.7-1.7 7.9-2.7 11.5-1 3.6-2.2 8.3-2.5 10.5-.4 2.2-1.5 6.7-2.4 10-1 3.3-3.1 11.4-4.6 18-1.5 6.6-3.5 14.9-4.5 18.5-1 3.6-2.2 8.3-2.5 10.5-.4 2.2-1.4 6.2-2.2 9-.9 2.7-2.2 7.9-2.9 11.5-1.2 6.6-3 14.1-6.4 26.5-1 3.8-3 12.2-4.5 18.5-2.4 10.7-5.1 21.6-9.5 38.5-1 3.8-2.1 8.8-2.5 11-1.2 7-5.5 20.9-6.8 21.7-.7.4-21.3.8-45.9.8-39.2 0-44.8.2-46.2 1.6-1.4 1.4-1.6 10.7-1.6 88 0 85.1 0 86.4 2 88.4s3.3 2 182.8 2c139.3 0 181.1-.3 182-1.2.9-.9 1.2-22 1.2-88.8s-.3-87.9-1.2-88.8c-.9-.9-12.9-1.2-47.9-1.2-39.2 0-46.8-.2-47.8-1.4-1.4-1.6-.5-7.8 2.9-20.9 1.1-4.2 2.9-11.2 4-15.5 1-4.2 2.7-10.6 3.6-14.2.9-3.6 2.4-10.1 3.4-14.5 1.6-7.6 2.4-10.7 6.9-28.5 3.5-13.5 6.3-25.4 7.1-30 .5-2.5 1.5-6.4 2.4-8.7.8-2.3 1.8-6.3 2.2-9 .4-2.6 1.1-5.9 1.6-7.3.5-1.4 1.8-6.3 2.8-11 2.3-10.9 4.8-20.9 7-28.5 1-3.3 2.1-8 2.5-10.5.8-5.9 3.4-14.2 4.9-15.8 1-1 31.6-1.2 152.1-1.2 83 0 151.2.3 151.6.7 1 1.2 4.7 13.2 5.4 17.8.4 2.2 1.5 6.7 2.5 10s2.1 7.8 2.4 10c.6 3.8 2.4 11 6.6 27 2.2 8.1 4.5 17.7 7 29 .9 4.4 2.5 10.9 3.4 14.5.9 3.6 2.5 9.9 3.6 14 1 4.1 2.6 10.4 3.6 14 .9 3.6 2.4 10.1 3.4 14.5 2.3 10.5 4.8 20.5 7.1 28.4 1.1 3.5 1.9 7.3 1.9 8.5 0 1.1 1.2 6 2.6 10.8 1.5 5.1 2.4 10.5 2.2 13l-.3 4.3-46.9.3c-32.6.1-47.3.6-48.3 1.3-1.8 1.6-2 175.8-.1 177.7.9.9 42.7 1.2 182 1.2 179.5 0 180.8 0 182.8-2s2-3.3 2-88.4c0-77.3-.2-86.6-1.6-88-1.4-1.4-7-1.6-46.8-1.6-35.1 0-45.6-.3-46.3-1.3-.5-.6-1.9-4.8-3.2-9.2-2.1-7.8-3.3-12.6-7-29-1-4.4-2.6-10.9-3.5-14.5-3.4-13-5.6-21.7-8.1-32.5-1.4-6.1-3.7-15.5-5.1-21-1.4-5.5-3.4-13.4-4.4-17.5-1.1-4.1-2.4-9.8-2.9-12.5-.5-2.8-2.3-10.4-4.1-17-1.8-6.6-3.8-14.7-4.5-18-2.6-12.1-5.8-25.4-11.5-47-1-3.9-2.1-8.6-2.5-10.5-.3-1.9-1.4-6.9-2.5-11-4.9-19.5-7-28.2-9-36.5-5.4-23.3-11.9-47.6-13.2-49.3-.6-.6-2.6-1.2-4.6-1.2-1.9 0-8.5-.9-14.6-2-6.1-1-16.7-2.7-23.6-3.6-6.9-.9-14.7-2-17.5-2.4-2.7-.5-7.7-.9-11-.9-3.3-.1-9.8-.8-14.5-1.6-4.7-.8-17.3-2.2-28-3-10.7-.8-22.2-1.9-25.5-2.5-6.7-1.1-35.6-3-36.7-2.4-.4.3-4.7 0-9.5-.6s-18.2-1.5-29.8-2.1c-24.4-1.2-152.5-1.7-166.5-.7z"/><path d="M2549.5 1267.4c-2 1.4-2 2.6-2 74.8 0 64.9.2 74.1 1.7 80.3 3.3 13.9 5 21.1 6.5 26.5.8 3 2 8.2 2.7 11.5.7 3.3 2 8.2 2.9 11 .8 2.7 1.8 6.8 2.1 9 .4 2.2 1.5 7.4 2.6 11.5 5 19.9 7.1 28.4 9.5 38.5 1.4 6 3.5 14.1 4.5 18 1.1 3.8 2 7.9 2 9 0 1.1.7 3.1 1.6 4.3l1.5 2.2h47.3c44.5 0 47.4.1 48.9 1.8 1.6 1.7 1.7 10.6 1.7 106.8 0 89.1-.2 105.3-1.4 107-1.4 1.9-4.8 1.9-201.4 2.2-181.3.2-200.2.1-201.6-1.4-1.4-1.4-1.6-6.5-1.6-43 0-26.7-.4-42.2-1-43.5-1-1.9-3.1-1.9-86.5-1.9s-85.5 0-86.5 1.9c-.6 1.3-1 16.8-1 43.5 0 36.5-.2 41.6-1.6 43-1.4 1.5-20.3 1.6-201.6 1.4-196.6-.3-200-.3-201.4-2.2-1.2-1.7-1.4-17.6-1.4-105.1 0-78.9-.3-103.4-1.2-104.3-.9-.9-27-1.2-111.4-1.2-93 0-110.3.2-111.3 1.4-.9 1-1.2 23.4-1.2 85.7v84.4l3.8 3.3c2.1 1.9 9 6.9 15.3 11.1 23.2 15.6 34.5 23.4 36.6 25.2 1.1 1.1 2.4 1.9 2.8 1.9.4 0 3 1.7 5.9 3.8 2.9 2.1 12.4 8.7 21.2 14.7 8.8 6 19.3 13.2 23.4 16 4 2.7 12.1 8.3 18 12.2 5.8 4 14.9 10.2 20.1 13.8 5.2 3.5 15.4 10.5 22.5 15.4 7.2 5 19.3 13.3 27 18.5 7.7 5.2 18.3 12.5 23.5 16.1 5.2 3.7 10.8 7.4 12.4 8.3 1.6.9 4.9 3.3 7.5 5.3 2.5 1.9 9.1 6.5 14.6 10.2 5.5 3.7 15.3 10.3 21.8 14.7l11.9 8h860.4l4.1-2.8c6.2-4.1 25.5-17.2 36.8-25.1 5.5-3.8 17.7-12.1 27-18.5 9.4-6.4 18.8-12.9 21-14.4 7.1-4.9 28.1-19.3 59.5-40.7 5.2-3.6 14.5-9.9 20.5-14 6.1-4.2 14.2-9.7 18-12.3 3.9-2.6 10.6-7.3 15-10.3 4.4-3.1 9.8-6.8 12-8.2 2.2-1.4 5.1-3.5 6.5-4.5 1.4-1.1 7.7-5.4 14-9.7 6.3-4.4 16-10.9 21.5-14.7 5.5-3.7 14.3-9.7 19.5-13.2 5.2-3.5 10.3-7.3 11.3-8.4 1.6-1.8 1.7-12.1 1.7-187.6 0-102.2-.2-186.2-.5-186.7-.3-.4-2.7-1.8-5.3-3-4.3-1.9-7.3-3.1-18.2-6.9-1.9-.7-5.3-2-7.5-3-2.2-.9-5.6-2.1-7.5-2.5-1.9-.4-4.8-1.4-6.5-2.3-1.6-.8-5-2.1-7.5-2.8-7.9-2.3-19.3-6.4-20.4-7.3-.6-.5-2.9-1.2-5.1-1.6-2.2-.4-5.3-1.4-7-2.3-1.6-.8-5.2-2.1-8-2.8-5.2-1.3-11.9-3.4-19.5-6-2.5-.9-6.7-2.2-9.5-2.9-2.7-.8-7-2.1-9.5-2.9-4.2-1.5-9.8-3.1-31-9.2-4.7-1.4-11.4-3.3-15-4.4-7-2-12.1-3.3-21.5-5.6-3.3-.8-7.3-2-9-2.6-1.6-.5-6.4-1.8-10.5-2.8-14.6-3.4-21.6-5.2-26.3-6.6-2.6-.9-7.8-2.1-11.5-2.9-3.7-.7-9.6-2-13.2-2.9-12.5-3-20.6-4.8-27.5-6.1-3.8-.8-9.7-2.1-13-2.9-3.2-.9-7-1.6-8.3-1.6-1.3 0-7.1-1.1-13-2.4-5.9-1.3-12.9-2.9-15.7-3.4-2.7-.6-5.9-1.3-7-1.6-1.1-.4-2.9-.1-4 .8zM1228 1572c0 .5.5 1 1.1 1 .5 0 .7-.5.4-1-.3-.6-.8-1-1.1-1-.2 0-.4.4-.4 1zM522.6 1640.5c-.3.8-.1 1.5.4 1.5.6 0 1-.7 1-1.5s-.2-1.5-.4-1.5-.6.7-1 1.5z"/></svg>